<?xml version="1.0" encoding="UTF-8"?>
<svg id="Calque_2" data-name="Calque 2" xmlns="http://www.w3.org/2000/svg" viewBox="0 0 1294.69 1297.27">
  <defs>
    <style>
      .cls-1 {
        fill: #e9e9e9;
      }

      .cls-2 {
        fill: #1a1e33;
      }

      .cls-3 {
        fill: #fff;
      }

      .cls-4 {
        fill: #dea16f;
      }

      .cls-5 {
        fill: #a5bac0;
      }

      .cls-6 {
        fill: #d2d6da;
      }

      .cls-7 {
        fill: #006c8e;
      }

      .cls-8 {
        fill: #223650;
      }

      .cls-9 {
        fill: #3d8ead;
      }

      .cls-10 {
        fill: #ccd2d9;
      }

      .cls-11 {
        fill: #1d1d1b;
      }
    </style>
  </defs>
  <g id="fond">
    <circle class="cls-4" cx="699.11" cy="603.51" r="522.57"/>
  </g>
  <g id="Capa_1" data-name="Capa 1">
    <g>
      <path class="cls-2" d="m451.15,796.65c-43.02,12.54-85.26,39.97-113.01,75.34,27.14-36.25,61.5-73.13,94.03-104.75-52.02,19.73-129.26,55.91-166.94,96.54,9.25-107.88,3.53-137.96,112.78-189.77,3.44-1.63,4.16-1.72,4.95-4.85,1.55-6.09-3.85-10.28-6.81-15.18-12.85-21.28,1.47-33.38,15.65-47,5.69-5.47,8.8-9.17,13.33-14.2,15.66-17.34,34.93-29.92,48.98-48.55,23.34-30.07,37.66-67.49,49.86-103.29-15.11,32.23-48.92,47.71-79.98,61.64-74.54,36.42-136.01,65.92-198.81,122.22-10.24,8.48-23.68,15.91-31.75,26.15-4.17,5.29-6.22,9.73-7.63,15.92,1.05-11.64.13-23.55,2.59-35.22,12.42-36.22,35.7-54.74,65.08-75.61,102.15-72.55,209.89-121.16,307.97-202.25-112.05,52.11-240.12,118.63-334.34,198.36,74.59-81.73,206-143.4,303.09-196.34,68.14-36.67,125.79-85.07,192.79-127.16,76.35-47.97,171.94-76.23,260.8-95.28,4-.86,8.85-2.04,12.85-2.82,5.06-.99,10.84-2.29,15.98-3.22,27.63-5,54.63-6.4,82.54-4.58C961.31,33.47,824.64-5.92,664.51.96c-11.76-.98,16.24,1.35-4.99-.42-21.23-1.76-72.17,16.14-100.41,18.24-.02,0-1.69-.1-.76-.06-39.08,9.64-75.62,24.17-111.78,41.51-9.91,4.75-19.19,9.53-26.16,17.87-8.3,9.92-12.3,21.74-18.59,32.74-13.37,26.3-27.83,52.07-38.1,79.78-.04-1.17-.09-2.34-.05-3.51,0-.01,0-.04,0-.05,0-.01,0-.03,0-.05,0-.01.01-.04.01-.05,1.43-35.04-.24-68.74,8.15-103.17-.5,1.05-1.31,1.85-2.22,2.55-1.8,1.39-3.63,2.57-5.63,3.72-5.31,3.05-12.11,6.34-17.25,8.89-2.23,1.1-4.25,2.08-5.36,2.79-19.22,12.29-32.75,20.46-53.15,37.05-.03.02,15.48-13.11-3.34,2.84-18.81,15.96-71.48,62.04-93.66,89.82-4.31,5.4-15.79,16.45-18.05,22.35,0,.02-.27.26-.2.22s-.01.04-.02.06c-3.3,8.16-5.01,15.57-5.38,24.52-.32,7.67.02,16-.37,23.78-21.45-13.56-25.43-5.91-37.31,13.47,0,0-.02.09,0,.05-11.54,19.05-23.09,34.76-31.06,57.37,0,.02,2.5-8.37-.77,2.64-3.27,11.01-23.44,48.4-26.16,66.42,0,.02-.26.87-.17.6s.01.04,0,.07c-.7,3.3-2.03,6.48-2.45,9.9,0,.04,0,.1,0,.14,0,.04-.03.06-.04.1s-.02.06-.04.13c-.02.07-.05.22-.07.3-12.87,57.11-23.55,124.23,8.9,177.4-10.78,7.17-25.07-7.27-35.14-11.07-4.24-1.6-8.1-1.67-12.28-2.97-.02,0-.01-.02-.04-.03-1.82-.36-3.64-.7-5.46-1.05-.02,0,.05.01.04.01-2.1-.16-2.4-.59-4.91-.62-5.99-.06-14.16,2.54-20.31.6,31.43,24.43,51.32,59.13,65.94,95.64.01.03.05.1.06.13,3,7.85,6.49,15.26,10.02,22.9-22.74-17.18-45.43-34.3-71.79-46.04,26.75,24.05,42.83,50.29,62.8,81.69,9.12,14.34,21.3,32.3,34.81,50.09,7.44,9.8,22.91,41.75,38.05,47.91-27.2-3.95-55.93-3.22-83.68-3.63,62.02,51.67,125.08,97.94,190.65,144.91-9.64-21.43-20.21-41.4-31.97-62.02-4.53-7.95-9.76-17.57-13.85-26.12C6.79,568.3,247.63,234.37,588.92,102.23,324.77,230.42,52.87,524.5,171.34,834.58c.02.06.73-.03.76.04,13.02,33.03,28.99,64.91,44.58,96.79,4.03,6.1,8.18,12.11,12.31,18.14-4-5.7-8.02-11.41-11.84-17.24.57,1.17,1.15,2.33,1.75,3.48,15.92,22.54,31.84,45.01,47.03,68.05,16.98-25.15,34.03-49.72,51.53-74.66,11-15.69,21.84-31.63,35.62-45.6,42.39-42.95,96.2-70.76,151.12-94.36-18.03.47-35.63,2.35-53.05,7.43Z"/>
      <path class="cls-8" d="m170.77,258.76c-.26.65-.55,1.41-.77,2.09.45-1.33.99-2.6,1.56-3.89-.28.62-.53,1.15-.79,1.8Z"/>
      <path class="cls-8" d="m173.37,253.43c-.07.11-.24.39-.29.48-.05.09-.04.07-.06.11-.02.04-.02.05-.03.08-.37.78-.78,1.52-1.16,2.29.53-1.11,1.1-2.19,1.71-3.25-.06.1-.1.18-.17.29Z"/>
      <path class="cls-8" d="m174.18,252.05c-.14.22-.14.24-.25.42.27-.45.56-.87.84-1.3-.17.25-.46.65-.59.87Z"/>
      <path class="cls-8" d="m392.25,212.69c-.03.05-.26.19-.16.18,13.29-10.47,26.79-20.57,40.78-30.08.03-.02.14-.1.16-.12C496.58,102.6,553.44,37.86,652.7,1.6c-24.43,1.93-48.69,7.04-72.66,12.17-81.79,43.31-145.55,117.52-187.79,198.92Z"/>
      <path class="cls-8" d="m363.73,190.63c-.04-1.17-.09-2.34-.05-3.51,0-.01,0-.04,0-.05-3.31,18.61-5.52,37.08-6.78,55.93,7.56-6.94,15.06-13.97,23.03-20.44,40.88-80.26,99.78-157.48,178.37-203.84-38.91,9.63-75.64,24.19-111.7,41.5-9.88,4.74-19.24,9.56-26.19,17.89-8.27,9.91-12.3,21.74-18.58,32.74-13.37,26.3-27.83,52.07-38.1,79.78Z"/>
      <path class="cls-8" d="m536.61,72.1c-35.8,31.75-65.37,68.24-95.37,105.15,45.94-30.32,95.71-56.57,147.62-75-13.09,6.11-25.82,12.92-38.44,19.93,176.62-83.59,361.68-67.83,540.74-2.11-48.25-31.76-100.56-59.26-154.78-79.47-53.17-.87-107.48-1.57-160.15,3.5-72.97,7.03-141.68,34.14-207.69,62.81-32.72,14.22-63.85,28.99-93.54,48.13-1.82,1.18-3.7-1.16-1.87-2.34,33.14-21.49,68.66-38.13,105.33-53.31,33.61-13.91,68.04-27.48,102.79-38.85,79.29-25.46,163.35-25.06,245.7-23.4C839,5.95,756.96-3.18,664.1.93c-.04,0,.04,0-.07-.02-45.17,15.56-91.61,39.45-127.41,71.19Z"/>
      <path class="cls-8" d="m101.99,592.52c-18.51-44.05-28.65-91.97-32.65-139.45,0,.04-.03.06-.04.1-.01.04-.02.06-.04.13s-.06.22-.07.3c-1.04,4.69-1.93,9.4-2.84,14.11-4.72,72.53.82,149.02,54.39,204.14-.79-12.58.17-25.12.9-37.69-7.37-13.54-13.67-27.41-19.65-41.63Z"/>
      <path class="cls-8" d="m132.59,347.1c-.49,57.74.99,117.79,14.62,174.16,13.87-31.09,30.11-60.17,48.53-88.75-19.1-45.14-21.05-95.43-28.31-143.32,0,4.41.04,8.82-.19,13.23-17.61-11.47-22.61-9.24-34,8.07-.44,12.16-.54,24.48-.64,36.61Z"/>
      <path class="cls-8" d="m306,293.52s0,.05,0,.08c15.55-16.75,31.5-32.86,48.37-48.29-5.79-49.72-9.99-108.23,9.66-155.24-4.36,2.47-8.83,4.72-13.32,6.94-25.97,61.73-42.41,129.53-44.7,196.51Z"/>
      <path class="cls-8" d="m71.82,595.06c-9.79-32-13.5-60.96-10.94-95.62-6.41,43.59-6.21,92.02,17.2,131.53-10.78,7.21-25.06-7.26-35.13-11.05-4.24-1.59-8.1-1.66-12.28-2.97,24.01,23.36,39.75,44.58,56.87,73.51,17.03,29.41,39.19,50.41,48.7,84.81.25.9-.06,1.12-.59,1.54.92,1.41,1.9,2.91,2.82,4.33-9.64-32.87-13.25-63.04-16.57-96.75-22.56-28.48-39.02-53.14-50.09-89.34Z"/>
      <path class="cls-8" d="m177.08,247.8c-.07.1-.13.2-.2.3.69-.94,1.39-1.88,2.11-2.8-.65.82-1.29,1.65-1.91,2.5Z"/>
      <path class="cls-8" d="m223.62,393.25c-6.05-62.56,2.89-127.9,26.89-186.08-9.95,49.88-14.98,101-17.27,151.78-.32,7.06-.32,14.09.36,21.13,22.11-28.45,45.04-56.29,69.19-83.04,0,0,0-.02,0-.03,1.79-67.61,18-135.49,43.75-197.93-1.39.65-4.23,2.1-5.26,2.76-13.55,8.58-26.25,17.23-39.09,26.46-16.88,44.42-24.54,91.08-30.02,138.07-3.95-7.99-4.55-16.39-4.13-25.15,1.75-35.8,11.21-69.94,21.97-103.9-41.15,31.21-77.96,68.38-111.03,107.99-5.14,63.07,3.67,124.85,17.3,186.38,8.84-13,18.04-25.74,27.34-38.42Z"/>
      <path class="cls-8" d="m84.6,407.66c-4.6,12.76-10.71,19.06-12.49,38.62,0,.03-2.64-29.21.49,5.53,3.13,34.74,21.17,134.01,49.14,174.09,2.02-19.14,6.18-49.51,14.2-71.57-27.64-56.42-37.01-119.72-36.79-181.99-5.32,12.1-9.95,22.55-14.55,35.31Z"/>
      <path class="cls-8" d="m138.78,545.45s.02.06.04.09c2.18-6.48,4.44-12.94,6.61-19.42-17.76-65.01-17.18-143.05-15.5-210.16-8.43,14.28-16.48,28.73-24.18,43.41-2.06,62.74,5.73,128.92,33.03,186.08Z"/>
      <path class="cls-8" d="m0,615.87c8.07,6.17,15.29,13.08,22.07,20.67-.86-1.55-1.66-3.13-2.44-4.72,44.28,20.3,84.73,99.47,112.81,140.07-5.58-16.88-15.48-33.91-25.4-48.21-26.86-38.72-46.95-75.57-81.84-107.82-2.08-.12-2.39-.57-4.9-.59-5.98-.05-14.16,2.54-20.3.6Z"/>
      <path class="cls-8" d="m201.24,977.53c.42.28,1.03.71,1.49,1.02-.82-.57-1.66-1.14-2.5-1.71.38.26.6.4,1.01.69Z"/>
      <path class="cls-8" d="m139.09,932.14c4.69,3.82,9.83,7.53,14.77,11.11-13.18-9.56-25.63-20-38.23-30.33,7.82,6.46,15.55,12.78,23.46,19.22Z"/>
      <path class="cls-8" d="m67.14,873.63c51.65,5.9,97.57,42.89,139.88,70.99-.05-.39-.13-.76-.21-1.14,6.59,12.52,12.9,27.73,25.43,35.3-5.61-10.49-11.39-20.87-17.3-31.2-3.78-3.29-7.41-6.69-11.22-9.96,0,0,.05,0,.04,0-38.08-32.18-79.06-61.69-129.21-72.82,17.44,4.16-7.22-5.25,19.5,1.91,26.72,7.16,79.12,38.96,104.62,62.99-41.45-47.01-90.41-96.97-123.11-150.73-17.09-28.1-29.98-50.21-52.05-72.72,53.11,45.69,91.42,111.06,142.23,161.2-1.79-15.17-9.74-27.06-18.96-38.94-23.94-30.83-45.44-63.66-65.79-96.8-11.77-19.17-20.54-38.69-33.04-57.27,6.69,12.1,12.82,24.27,18,37.08.01.03.04.1.05.14,3.01,7.85,6.49,15.25,10.02,22.9-22.74-17.18-45.43-34.3-71.79-46.04,26.74,24.06,42.85,50.28,62.79,81.69,9.11,14.34,21.32,32.3,34.81,50.09,7.43,9.8,22.92,41.74,38.05,47.91-27.19-3.94-55.94-3.23-83.67-3.62,3.6,3,7.27,6.06,10.93,9.06Z"/>
      <path class="cls-8" d="m94.78,895.89c2.13,1.69,4.77,3.78,6.94,5.58-11.45-9.34-23.11-18.48-34.58-27.85,9.2,7.51,18.27,14.83,27.64,22.27Z"/>
      <path class="cls-8" d="m252.96,950.17c15.99-33.81,34.65-65.89,58.75-94.07-34.07,26.37-60.02,61.53-77.89,100.54,3.69,5,7.21,10.29,10.86,15.21,3.06-6.05,5.61-16.06,8.28-21.69Z"/>
      <path class="cls-8" d="m210.51,939.59c-3.32-6.02-6.55-12.06-9.47-18.28-7.08-12.61-14.06-25.26-21.03-37.93,5.76,16.13,12.29,31.82,19.99,47.12,3.56,2.97,7.05,6,10.51,9.09Z"/>
      <path class="cls-8" d="m148.15,754.7c2.99,19.53,12.24,45.17,18.27,64.6.71,1.5,1.08,2.43,1.59,3.7.12.29-.08.52.03.82,1.23,3.53,2.49,7.07,3.85,10.57.03.07.09.19.12.26,13.27,32.95,29.01,64.9,44.69,96.75,4.01,6.11,8.18,12.11,12.3,18.14-4.01-5.7-8.01-11.41-11.84-17.23.65,1.1,1.06,2.41,1.78,3.46,4.48,6.5,9.12,12.87,13.73,19.28-6.16-93.39-4.94-193.98,60.05-267.57,8.43-8.81,16.27-17.69,26.67-24.27,12.04-7.61,24.77-13.24,34.86-23.55-27.55,2.93-53.36,10.68-77.25,24.73,25-23.28,56.36-51.17,86.86-66.85,10.02-5.16,19.68-11.95,28.76-18.84-4.13-1.98-7.39-2.08-11.64-.8-92.43,27.81-157.1,76.62-198.12,165.42-10.68,23.13-15.74,53.23-14.82,78.85-15.34-39.46-24.03-87.15-17.08-128.21,7.24-42.75,24.99-74.71,45.74-110.59-11.85,9.05-21.99,17.53-30.27,29.86,32.6-114.66,214.06-214.81,310.87-276.98-85.13,16-173.03,58.93-240.32,113.31,137.09-161.57,297.52-239.36,494.84-304.16C424.92,183.45,95,407.69,148.15,754.7Z"/>
      <path class="cls-8" d="m555.77,302.2c37.96-14.85,76.12-28.19,115.19-39.8,16.68-11.72,33.93-22.46,51.23-33.25-56.68,22.14-112.45,44.77-166.42,73.05Z"/>
      <path class="cls-8" d="m704.38,223.18c13.37-2.16,26.95-4.68,40.47-7.2,19.79-10.32,39.64-20.31,60.29-28.82-127,9.44-249.65,48.26-362.3,106.9,84.95-31.46,171.81-56.39,261.53-70.87Z"/>
      <path class="cls-8" d="m737.28,99.99c-119.81,7.66-230.92,61.62-332.53,122.01-14.51,12.53-28.25,25.33-42.02,38.87,26.95-24.17,56.45-41.35,88.38-58.52,44.05-23.7,86.84-44.94,134.88-62.97,126.85-47.61,268.34-43.85,397.86-6.07,4.5-1,8.47-1.82,12.76-2.73-84.03-25.57-171.58-38.12-259.33-30.59Z"/>
      <path class="cls-8" d="m345.92,278.22c.99-1.12,2.06-2.2,3.07-3.31-1.28,1.31-2.56,2.61-3.84,3.93.28-.2.53-.35.77-.62Z"/>
      <path class="cls-7" d="m440.38,178.06C173.74,357.2,31.83,618.39,201.27,921.13c3.64,8.92,9.12,18.32,13.63,26.3,11.71,20.67,22.33,40.58,31.95,62.04,11.94,27.92,29.48,52.52,48.5,76.03,2.23.87,4.04-.55,5.9-1.7,0,0,0,0,.04-.02.04-.03.17-.13.23-.17,0,0,0,.02.02.02,2.46-1.8,4.96-3.66,7.12-5.79,3.63-3.57,7.18-7.67,5.92-13.01.02,0,.06,0,.08,0-37.36-35.61-65.95-86.84-95.78-129.03-.61-1.16-1.17-2.29-1.76-3.5,4,6.23,7.5,10.8,12.12,17.87-8.11-14.91-3.26-.87-14.02-21.96-10.76-21.09-32.43-65.51-42.96-93.13-.02-.05-.76-.53-.79-.59C51.66,524.21,324.26,230.77,589.4,101.89c-56.02,21.36-97.67,41.67-149.01,76.17Z"/>
      <path class="cls-9" d="m299.59,1084.86c.54-.3,1.12-.72,1.67-1.06,0,0,0,0,.04-.03.04-.03.17-.13.23-.17,0,0,0,.02.02.02,2.45-1.77,4.82-3.59,7.01-5.67-27.02-30.99-45.06-66.18-62.01-103.35-9.17-12.97-18.5-25.83-27.64-38.82-.61-1.16-1.17-2.29-1.76-3.5,4,6.23,7.5,10.8,12.13,17.87-8.16-14.91-3.2-.87-14.04-21.96-10.83-21.09-32.91-65.21-43.05-93.15C58.13,558.51,255.18,297.51,487.72,159.41c32.41-20.96,66.18-40.69,101.14-57.16C247.72,234.34,6.73,568.32,201.05,921.32c4.06,8.56,9.3,18.16,13.84,26.12,11.76,20.63,22.32,40.58,31.97,62.03,11.94,27.93,29.48,52.52,48.5,76.03,1.55.7,2.81.14,4.23-.64Z"/>
      <path class="cls-6" d="m440.87,1231.54c6.46,4.27,10.31,6.85,16.55,10.27,1.43.78,3.52,1.06,4.82,2.27-11.69-14.28-17.32-30.05-20.69-48.02-2.19-.78-3.76-2.11-5.61-3.53-6.69-5.15-12.97-10.82-19.95-15.67-21.47-17.15-42.96-35.23-62.81-54.05-13.7-12.99-25.93-25.87-38.3-39.88-1.89-2.14-3.72-3.68-6.2-5.1-2.23,2.12-4.64,3.99-7.14,5.79,0,.15.07.32.05.45,16.33,25.46,34.81,48.75,54.29,72.07,9.53,11.41,20.11,23.09,31.71,32.93,1.88,1.6,3.81,3.39,4.1,6.04,10.53,9.61,20.5,19.37,31.67,28.39,5.99-.5,13.45,5.35,17.5,8.02Z"/>
      <path class="cls-6" d="m299.58,1084.86c.54-.31,1.05-.68,1.59-1,0,0,.03-.01.04-.02s.06-.04.07-.06c0,0-.02.01-.03.02-.56.35-1.1.73-1.67,1.06Z"/>
      <path class="cls-5" d="m501.99,1283.15c-6.96-6.97-14.19-13.54-21.21-20.37-4.29-4.18-8.24-8.29-11.72-13.23-3.48-4.95-5.97-9.99-8.88-15.5-5.95-11.3-11.64-21.89-10.69-35.14,0-.01,0-.04,0-.05.09-1.23-.22-2.49.12-3.69,0-.02.01,0,.02-.02,4.12-10.04,5.06-20.87,9.63-30.75-.03-.07-.06-.18-.09-.24-.75-1.33-1.93-2.01-3.17-2.82-2.1,5.42-3.6,10.64-3.84,16.49-39.65-28.47-81.01-56.2-117.9-88.11-7.45-6.45-13.97-12.63-19.51-20.72-1.22,3.56-3.43,6.24-6.08,8.84,2.45,1.44,4.34,2.95,6.22,5.1,12.29,14.03,24.64,26.88,38.3,39.88,19.78,18.83,41.36,36.89,62.79,54.05,6.98,4.85,13.27,10.52,19.95,15.67,1.84,1.42,3.43,2.74,5.61,3.53,3.37,17.97,9.01,33.74,20.69,48.02-1.3-1.21-3.4-1.49-4.82-2.27-6.24-3.41-10.09-6-16.55-10.26-4.04-2.67-11.55-8.56-17.45-7.99,4.15,3.24,10.92,8.06,15.01,10.85,22.39,15.23,43.58,30.89,63.56,48.75Z"/>
      <path class="cls-10" d="m372.22,1108.73c-20.27-13.16-38.31-26.37-55.39-43.16-.21-.14-.78-.54-1.03-.66-.26-.13-.36-.11-.58-.14-.22-.03-.41.06-.62.05.61,1.37.48,2.74.16,4.17,5.65,8.06,11.96,14.3,19.45,20.73,37.08,31.87,78.24,59.64,117.98,88.09.19-5.84,1.77-11.04,3.8-16.5-27.35-18.07-56.47-34.86-83.77-52.58Z"/>
      <path class="cls-1" d="m518.42,1297.27c-7.95-11.79-14.13-25.32-23.28-36.11-11.25-13.26-22.52-24.93-31.01-40.08-.28-.5-.5-.96-.77-1.5-5.54-10.91-10.88-20.61-7.41-33.02,0-.02,0,0,.01-.02,2.01-5.11,1.5-10.44,2.77-15.76.5-2.08,1.33-4.22.53-6.39-4.61,9.84-5.9,20.58-9.62,30.74,0,.02-.01,0-.02.02-.38,1.2-.05,2.46-.12,3.69,0,.02-.01.04-.01.05-1.2,13.3,4.7,23.83,10.69,35.14,2.92,5.52,5.4,10.55,8.89,15.5,3.49,4.95,7.4,9.05,11.72,13.24,12.21,11.83,24.51,23.69,37.64,34.49Z"/>
      <path class="cls-1" d="m387.58,1189.08c-11.46-9.88-22.31-21.49-31.75-32.92-19.31-23.37-37.98-46.61-54.22-72.09,0-.07-.05-.36-.06-.42-.02-.06.02-.03-.02-.04-.08,0-.26.2-.3.23-.04.03-.04.02-.05.03-2.18,1.26-4.69,2.97-6.76.79-1.18.69-.86,1.98-.33,2.86,1.24,2.07,2.34,3.86,3.66,5.76,4.46,6.45,8.87,12.45,13.46,18.9,22.35,31.4,52.31,56.99,80.51,82.95-.27-2.66-2.26-4.44-4.11-6.04Z"/>
    </g>
  </g>
  <g id="texte">
    <path class="cls-3" d="m639.02,218.72l1.3,2.62c.5.08,1.01.18,1.53.28,5.94,1.19,10.79,1.49,15.91,1.82,4.48.28,9.12.58,14.18,1.48.13.02.26.04.39.06,1.62-5.13,3.33-12.09,3.39-15.2-.71-2.83-1.34-5.22-1.88-7.16-11.56,0-32.69,0-51.71.84l-.76.02h-10.22c-1.65,0-3.59.09-5.48.18-5.05.24-9.83.46-14.39-.57-2.1-.4-2.77-.23-3.14-.14l-.84.19c-.47.09-.89.19-1.27.28-6.5,1.47-11.89,1.51-20.2-2.64h0s-.82.15-.82.15h-1.58c-5.1,0-18.92-.5-29.33-.98-23.37-1.06-26.49-1.56-29.46-2.94-4.32-.54-16.3-1.19-36.61-1.19l-1.03-.03-15.88-.94-1.37-.3c-2.17-.48-2.82-.48-2.85-.47-.57.1-2.87.96-4.24,1.47l-1.33.5-1.39.28c-1.37.27-2.55.52-3.59.74-5.53,1.17-11.21,2.37-18.02,0-10.3,2.53-18.76,2.15-29.1-1.3l-.61-.22c-2.32-.86-9.41-1.67-13.03-1.76l-1.89.21c-.35.04-8.73.96-17.27.96-6.14,0-16.94,1.13-24.83,1.96-1.79.19-3.45.36-4.94.51-5.37.53-11.51.76-16.61.86v4.6c.03.17.06.35.09.55.44,2.56,1.09,6.36.98,10.56.57,2.11,1.03,4.11,1.42,5.84.14.64.33,1.43.46,2l3.37,6.74-3.93,7.84s-.02.04-.03.06c4.27-1.35,10.25-2.56,18.68-3.12,18.38-1.23,25.59,2.04,28.33,3.54,4.53,2.33,7.92,6.5,9.29,11.57,1.73,6.37.19,13.6-4.98,23.42-3.67,6.97-8.79,14.36-14.43,20.84-7.32,8.82-8.11,12.92-8.95,17.26-.3,1.54-.63,3.28-1.17,5.17l-.45,1.56-.72,1.45c-1.41,2.83-4.07,7.68-7.53,11.92l-.03,9.04-11.92,3.99c-.85.29-1.97.75-2.75,1.11-.51.57-1.25,1.52-1.73,2.21-1.51,4.79-4.02,9.29-6.97,12.42-.38.57-1.38,2.29-2.19,4.7l-1.31,3.92-2.92,2.92c-1.64,1.64-4.28,7.07-5.28,9.12-.3.62-.58,1.18-.82,1.66-2.68,5.38-7.89,9.74-12.75,12.88-1.39,1.58-2.89,2.93-4.27,4.06-.92,1.48-1.82,3.01-2.31,3.89l-3.33,8.34-.33.66c-1.33,2.65-3.54,5.77-5.65,8.31-5.3,10.54-16.85,13.26-22.81,14.48-4.3,1.18-8.03.98-11.18.09-1.22,1.33-2.48,2.5-3.67,3.54.82,5.74,1.06,12.51,1.26,18.53.08,2.47.19,5.65.33,7.58,2.04,5.15,1.96,11.59-2.19,17.91-1.41,2.15-3.04,3.92-4.61,5.64-1.01,1.1-2.26,2.46-2.82,3.3l-.56.79c-.61.82-2.45,4.22-4.22,9.52l-.32.95-.43.91c-.67,1.44-1.34,2.89-1.99,4.32-5.43,11.83-11.03,24.03-20.8,32.13-.82,1.28-1.5,2.7-2.01,4.25-2.26,6.75-5.05,11.86-8.33,15.21-.27.55-.59,1.21-.83,1.72-.17.35-.33.7-.5,1.05-2.66,7.78-8.89,15.25-16.11,23.43-.88,1-2.09,2.37-2.44,2.81l-.3.39c-2.97,3.71-10.18,14.15-12.29,17.66l-.15.25c-.15.33-.39.93-.57,1.38-.89,2.2-2.18,5.37-4.36,8.63-.54,1.04-1.1,2.07-1.61,3.01-.25.46-.56,1.04-.83,1.55-1.5,5.77-5.97,12.43-17.04,18.04-.45.41-.89.81-1.3,1.19-.08.08-.17.16-.26.24-1.55,3.32-4.14,7.44-8.42,12.79l-.31.38c-8.7,10.27-11.01,14.78-13.54,20.49l-2.25,5.06-2.71,1.62c.26.98.49,1.95.68,2.91.39.59.82,1.23,1.11,1.68l.62.92.5.99c1.31,2.63,3.92,7.86,3.89,14.4.81,1.01,1.78,2.18,2.68,3.28.74.89,1.53,1.86,2.39,2.92,2.16,2.64,3.95,5.01,5.53,7.1.82,1.09,1.76,2.33,2.54,3.31,3.29.79,6.43,2.28,9.08,4.32,2.91.92,8.93,1.65,13.29,1.73l-2.79-11.16,11.11-6.67c.32-.19.51-.32.62-.4.22-.27.6-.81.93-1.25.34-.47.71-.97,1.1-1.5l.73-.91c2.84-3.42,13.76-22.74,24.89-44.98l6.38-12.76,2.01-2.01c.17-.17.43-.43.71-.72,1.27-5.58,4.56-13.81,12.65-27.96l2.85-4.98,4.92-2.19c1.95-1.69,4.89-8.33,6.32-11.55l.1-.24c1.58-4.68,5.83-16.69,9.43-22.09l.42-.64.48-.6c6.62-8.27,13.21-17.57,15.17-21.34.6-3.41,2.51-9.12,8.63-18.31l.24-.34c6.29-8.98,10.98-14.6,18.39-22.81.78-1.45,1.69-2.94,2.71-4.61,1.68-2.75,3.75-6.15,5.23-9.41,3.68-9.13,9.32-19.8,13.19-24.96,2.02-2.69,4.46-5.13,6.42-7.09.15-.15.32-.32.49-.49l1.08-1.35c6.73-8.42,16.91-9.89,26.76-10.67,9.29-.74,23.29-1.01,51.64-1.01h112.44c5.08,0,11.79-.2,18.07-.71,1.29-5.66,2.98-13.68,3.87-17.89.45-2.14.81-3.83,1.09-5.16-.01-.05-.03-.1-.04-.15-.43-1.6-.9-3.34-1.14-5.28-.21-.4-.49-.86-.81-1.34-3.02.42-6.57.78-9.98.78-2.6,0-5.47.7-6.43,1.01-4.92,2.25-11.77,3.25-16.57,3.25-.35,0-.77,0-1.21,0-6.46,4.14-14.11,4.39-22.82.73-.63-.27-1.19-.5-1.68-.68-1.14-.32-2.86-.81-3.69-.95-6.38,2.13-19.07,2.6-23.42,2.6-3.49,0-9.76,0-12.3.25-4.17,1.29-8.13,1.02-11.7.79-1.37-.09-2.78-.18-4.11-.18h-2.85l-2.15-.72c-2-.36-8.38-.98-14.6-.98-9.64,0-14.82-.26-18.47-.92-12.49-2.27-16.92-11.73-16.92-19.13,0-6.91,2.66-10.97,5.47-15.27,1.04-1.6,2.45-3.75,4.43-6.95.55-1.05,1.12-2.08,1.69-3.08.34-.6.8-1.43,1.19-2.15v-8.78l10.32-4.43c.31-.34,1.03-1.36,1.64-3.2l.61-1.83,2.13-3.53c1.82-3,5.2-8.59,6.14-10.95l.07-.17c1.99-4.95,4.04-10.07,6.73-14.1l.56-.79c1.1-1.47,2.58-3.14,4.46-5.25,1.54-1.74,4.7-5.29,6.52-7.69v-.28l1.85-3.7c1.46-2.93,4.34-7.83,13.68-19.84.89-1.17,1.71-2.2,2.45-3.11.36-.44.8-.99,1.13-1.42,2.59-7.74,8.18-14.6,17.69-21.7.34-1.19.83-2.65,1.64-4.21.84-2.61,2.59-7.21,6.72-11.34l1.09-1.09c3.64-11.09,14.99-19.38,15.56-19.79,6.8-4.9,12.77-5.24,17.07-4.35,2.42-.09,7.29-.5,11.01-.82l3.59-.3c2-.18,4.17-.4,6.38-.63,11.14-1.14,18.53-1.8,24.25-1.05,9.17.61,15.68.04,30.96-1.3l4.86-.42c9.65-.8,29.58-1.64,49.15-1.76.52-.24,1.08-.48,1.68-.69,7.7-3.27,13.57-1.92,17.9-.31.16.06.33.12.52.19l2.4.8h19.92Z"/>
    <path class="cls-11" d="m523.31,491.71l2.31.23c.92,0,2.77.23,3.69.46,1.15.46,2.31.69,2.77.69s.92,0,1.15.23,1.61.69,3,1.15c1.61.46,3.23.92,3.69,1.15s1.61.46,2.31.46c.46,0,1.38.23,1.61.46.46.46,1.38.69,2.08.69.69.23,1.38.69,1.84,1.15.23.23.69.46.92.46s1.38.46,2.77,1.15c1.38.69,2.77,1.38,3,1.38.46,0,.92.23,1.38.69,1.38.92,4.84,2.77,5.54,2.77.46,0,1.62.46,2.54,1.15.92.46,2.08.92,2.31,1.15s.46.92.69,1.61c.23,1.61,1.38,3.46,3.69,6.23,1.38,1.38,2.08,2.08,3.92,2.77,3.69,1.61,7.15,1.61,15.46.69,1.15,0,3.46-1.38,5.31-2.77.46-.23,1.15-.46,1.61-.46.92,0,4.38-1.84,6.23-3.46,2.08-1.61,2.77-1.61,3.46-.23,0,.46.46.92.92.92.69.46,1.38,1.61,1.15,2.54-.46,1.38-3.23,4.84-5.31,6.46l-3.46,3.46c-1.15,1.38-1.85,2.08-2.54,2.08-.46,0-1.38.23-2.08.69-.69.46-1.61.69-2.31,1.15-.46,0-1.38.23-2.08.46-2.77.92-4.84,1.38-6.23,1.38-2.31,0-6.69-1.15-9.23-2.54-1.38-.69-2.77-1.15-3.46-1.38-.46,0-1.38-.46-1.85-1.15l-2.31-1.38c-1.38-.69-1.61-.69-2.31-.23-.69.69-1.61,4.15-1.61,5.77,0,.69-.23,1.38-.69,1.61-.23.23-.69,1.61-1.15,3-.46,1.38-1.15,3.23-1.85,3.69-.46.69-.92,1.85-1.15,2.08,0,.46-.69,1.61-1.38,2.77-1.38,1.84-2.08,2.77-3,5.54-.23.69-1.38,2.31-2.77,3.46-1.15,1.38-2.31,3-2.54,3.46-.23.69-.92,2.08-2.08,3.46-.69,1.38-1.61,2.77-1.61,3.46-.23.46-1.15,1.62-2.08,2.54-1.15.92-2.77,2.77-3.69,4.15l-1.85,2.54c-.23,0-1.15.69-1.84,1.61-.92.92-2.31,2.08-3.46,2.77-.92.46-1.85,1.15-2.08,1.38,0,.23-1.38,1.85-2.54,3.46-2.77,3-4.61,4.38-9.23,6.23l-2.77,1.15-6.46-.23c-3.69,0-7.38,0-8.53-.23-2.08-.23-5.3-1.85-7.15-3.23-.69-.69-1.38-1.15-1.85-1.38-1.15-.23-4.84-4.15-6-6-.46-.92-1.38-1.84-2.08-2.54-.69-.69-1.38-1.61-1.84-2.77-.23-.92-.69-2.77-1.15-3.92-1.15-3.46-1.85-15.22-.92-16.84.23-.46.46-1.15.46-1.84-.23-1.62.23-3.46,2.77-9,.69-2.08,1.61-4.15,1.61-4.38,0-.46,0-.92.46-1.15.46-.46,2.31-5.07,2.31-6.23,0-1.38,1.85-4.38,3.69-6.23,1.15-.92,2.31-2.31,2.54-3,.69-1.15,1.85-2.31,7.38-7.15,2.08-1.85,3.69-3.23,3.69-3.46s.69-1.15,1.84-2.31c.92-.92,2.08-2.08,2.31-2.54.69-.92,2.77-2.54,5.31-3.69.69-.46,3-2.54,5.07-4.38l3.69-3.92Zm22.14,19.61c-1.84,1.15-3.69,1.85-4.61,1.85-.46.23-1.85,1.15-3.23,2.31-2.54,2.54-4.84,3.92-6,3.92-.92,0-3,2.08-4.38,4.15-.46.69-1.15,1.38-1.62,1.61-.46.23-1.38,1.15-1.84,1.85-.69,1.15-2.08,2.54-3,3.46-2.08,2.08-3.69,4.15-6.23,8.07-2.31,3.23-3.23,4.15-4.38,4.61-.46.23-1.15.92-1.62,1.61-.23.69-.92,2.31-1.61,3.46-1.84,3-3.23,6.23-3.23,6.92,0,.23-.46.69-.69,1.15-.46.46-.69,1.15-.69,1.38,0,.46-.23.92-.69,1.61-.23.23-.92,1.38-1.38,2.31-.23.92-.69,1.84-.92,1.84,0,.23-.23.69-.23,1.15s-.46,1.62-1.15,2.31q-.92,1.38-.69,3.69c0,1.85.23,2.31,1.38,3.46,1.38,1.85,3,2.54,4.84,2.54,1.38-.23,6.23-2.77,8.31-4.61.69-.69,2.31-1.84,3.23-2.77l3.23-2.54,1.38-1.38c.69,0,3.92-2.54,4.15-3,.23-.23.92-1.15,1.84-1.84,3.23-2.54,8.31-7.84,10.61-10.84,2.31-3.23,4.15-6,4.15-6.23s.46-.69.69-1.15c.92-.92,3.46-5.54,3.46-6.23l.46-.92c1.38-1.38,3.69-6.69,3.69-8.53,0-.46,0-1.15.46-1.61.23-.23.46-1.15.46-1.84s.23-2.31.46-3.46c.46-1.62.69-2.54.23-3.69-.23-.69-.46-1.61-.46-2.08,0-.69-.69-1.38-1.15-2.08-1.38-1.38-1.61-1.38-3.23-.46Z"/>
    <path class="cls-11" d="m613.27,492.17h2.31c1.84,0,2.54,0,3.69.92.92.46,1.61,1.15,1.85,1.15.46,0,3.92,2.31,4.15,2.77.23,0,.92.46,1.84.92.69.46,1.38.69,1.38.92s.69.92,1.38,1.85q3.69,3.92,3.46,5.31c0,.69-.69,1.84-.92,2.77-.69.69-1.15,1.61-1.38,2.08l-.69,2.31c-.23,1.15-.92,2.54-1.38,3.46-.69.69-1.38,1.85-1.85,2.31-2.08,3.23-3.23,5.07-5.54,8.07-1.61,2.08-3.46,4.15-4.15,4.84-.69.92-1.84,2.77-2.77,3.92-.92,1.38-2.08,2.77-2.31,3.23-.69.69-2.77,3.69-3.46,5.07,0,.46-.92,1.61-1.61,2.31-.46.69-1.15,1.38-1.15,1.61s-.46.69-.92,1.15c-.46.46-1.15,1.15-1.38,1.84-.46,1.38-2.31,4.15-3,4.61-.46.23-2.77,3.92-2.77,4.61,0,.23-.23,1.15-.69,1.85-.69.69-.92,1.38-.92,1.61,0,.46-.46,1.85-1.15,3.46-1.38,4.15-.92,4.61,2.54,2.54.23-.23,1.15-.69,2.08-1.15.92-.46,2.31-1.38,3-2.08.92-.69,2.31-1.61,3.23-1.85,1.38-.46,2.31-.92,3.23-1.84.92-.92,2.31-1.85,3.23-2.54.92-.23,2.54-1.61,3.46-2.77,1.15-.92,2.31-1.61,2.54-1.61s.92-.69,1.61-1.38c.69-.46,1.85-1.38,2.31-1.61,2.08-1.15,7.38-5.54,9.46-7.84,1.85-1.85,2.54-2.31,3.46-2.54,1.15-.23,1.61-.46,2.31-1.38.92-1.15,2.31-2.54,4.15-3.69.92-.69,2.08-1.61,3-2.54,1.38-1.85,1.61-2.08,4.15-4.15,2.77-2.31,6.46-5.54,9.69-8.53,1.61-1.38,3.46-3,4.15-3.23.46-.23,1.38-1.15,1.85-1.85l2.31-2.08c.69-.46,1.61-1.38,2.08-2.08.23-.92,1.15-1.84,1.61-2.08l1.15-.69c0-.23.69-1.15,1.62-2.08.92-.92,2.54-2.77,3.46-4.15,1.15-1.15,2.54-2.54,2.77-3,2.08-1.85,2.31-2.08,2.08-3.69-.23-1.15,0-1.61,0-1.85.69-.46,3.92-.23,5.31.23.69.23,1.61.69,2.31.69.69.23,1.84.69,2.31,1.38.69.69,2.08,1.85,3.23,2.77,3,2.31,6,5.54,6.23,6.46,0,.69.69,2.08,1.38,3.23,2.31,3,1.85,4.84-1.38,8.31-4.38,4.15-7.15,6.92-8.07,8.53s-3.46,4.38-6,6.92c-1.15,1.15-2.31,2.54-2.54,3.23l-1.61,2.31c-.69.46-1.15,1.38-1.15,1.84,0,.69-.92,3-1.38,3.23-.23.23-.69.92-.92,1.61-1.38,2.77-2.31,4.38-3.23,5.54-.46.46-1.38,1.61-1.85,2.77l-1.15,2.08c0,.23-.69,1.38-1.38,2.77-.69,1.38-1.15,2.77-1.38,3-.23.46-.46.92-.46,1.38,0,.23-.23,1.38-.92,2.54-1.15,2.08-2.08,4.15-2.08,5.3,0,.23-.23.92-.46,1.15-.69,1.15-.69,2.77,0,3s4.84-1.38,9-3.23c1.85-1.15,3.46-1.85,3.92-1.85.92-.46,4.61-3,7.15-5.07,1.85-1.61,3.92-3,5.54-3.92,1.38-.69,3.23-1.38,3.46-1.85.69-.46,2.08-1.61,3.46-2.31,1.38-.92,2.08-2.08,2.54-2.54,1.85-1.85,6.92-6.23,7.15-7.15.23-.46,2.31-2.31,3-2.54.69-.46,1.38-1.15,2.77-2.54,1.38-1.38,4.61-3.92,4.61-3.92.69,0,8.77-8.3,9.92-10.15,1.84-3,4.61-3.92,5.3-3.69q.46.46-.69,3.46c-.92,2.08-2.08,4.15-2.77,4.84-.23.23-.92,1.38-1.38,2.31-.23,1.15-1.38,2.54-2.08,3.46-.69.92-1.38,1.84-1.62,2.54-.46.46-1.15,1.15-1.61,1.38-.46.46-1.15,1.15-1.38,1.84-.23.69-.92,1.38-1.15,1.62-.46.23-1.61,1.15-2.54,2.31-4.15,4.61-5.77,6-7.84,7.84-1.38.92-2.54,2.08-2.54,2.31l-1.61,1.61c-.92.46-2.31,1.61-3.46,2.54-3.23,2.77-3.92,3.46-4.84,3.69-1.15.23-3.69,2.77-4.38,4.38-.69,1.61-2.31,3.23-3.92,3.92-.69.23-1.85.92-2.08,1.61-.69.46-1.85,1.38-3,2.08-1.15.69-2.54,2.08-3.46,3-.69,1.15-1.85,2.08-2.54,2.54-.69.23-1.85.92-2.54,1.61-.69.46-1.62,1.15-2.08,1.15-.69,0-2.31.46-3.92.69-5.31,1.15-7.84.46-15.46-4.61-3.69-2.54-6.92-5.77-6.92-7.15,0-.46-.23-1.38-.69-2.08-.69-1.38-1.38-8.3-.92-10.84.69-4.38,1.62-7.61,2.54-8.76.23-.46.46-1.15.46-1.61,0-1.15,1.15-4.15,1.61-4.84s2.54-5.54,2.31-5.77c-.69-.46-2.08.23-2.77,1.61-.69.69-1.38,1.62-2.08,2.08-.69.46-2.08,1.84-3.46,3.23-1.15.92-2.77,2.31-3.23,2.54-.69.23-1.61,1.15-2.54,1.84-3.23,3.46-5.31,5.07-6.23,5.54-.46.46-1.38,1.15-1.85,1.84-.46.46-1.38,1.38-2.31,2.08l-2.08,1.61c-.23.46-.92.92-1.61,1.15-1.38.69-3.46,2.08-6.46,4.38-1.38,1.15-3.23,2.08-3.92,2.54-.69.23-1.85,1.38-3,2.77-1.38,1.84-2.31,2.77-3.46,3-.69.23-1.84.69-2.08,1.15-.46.46-1.85,1.38-3.23,2.08-1.15.69-2.77,1.61-3.69,2.31-3,2.08-9.69,2.31-13.15.46l-3.23-1.85c-.92-.23-2.77-1.85-4.15-3.23-2.77-2.77-4.38-5.31-4.84-8.07,0-.92-.46-2.77-.69-4.38-1.38-6.69,0-15.69,2.77-19.84.46-.69.69-1.38.69-1.85,0-.92.92-2.31,1.85-3.23.23-.46.69-.92.69-1.15,0-.46.92-1.85,1.84-3.46,1.15-1.85,1.85-3.46,1.85-3.69s.69-1.15,1.38-2.08c.69-.69,1.38-1.85,1.61-2.31.23-.92,3.23-5.54,5.07-7.61l2.08-3c.69-.69,1.61-2.08,2.08-2.77.69-.69,1.38-1.85,1.84-2.54s1.61-2.08,2.77-3.46c1.15-1.15,1.85-2.31,1.85-2.54s.69-1.15,1.38-1.85c3.23-3.23,3.92-4.15,3.92-4.61,0,0,.92-1.15,1.85-2.08.92-1.15,2.31-3,3-4.38l.92-2.08Z"/>
    <path class="cls-11" d="m744.76,497.25c4.61.23,5.07.23,8.77,2.31,3.92,2.31,4.61,2.77,6,5.77,2.31,4.61,2.08,6.23-1.61,13.84-1.85,3.92-2.77,5.77-4.15,6.92-.92,1.15-1.84,2.08-1.84,2.31,0,.46-.23.92-.69,1.15l-1.85,3.23c-.69,1.38-1.61,3-2.31,3.46l-1.38,2.08c-.92,1.85-2.08,5.54-1.85,5.77.23,0,.69-.23,1.15-.69.46-.23,1.61-1.15,2.54-1.61,1.38-1.15,2.08-1.38,4.15-3.23,2.31-2.31,6.92-5.54,7.61-5.54.23,0,1.15-.69,1.84-1.38.46-.46,8.07-6.69,8.77-7.15,3-1.85,4.84-3,6.69-4.38,3.23-2.31,5.77-4.15,7.38-5.07.92-.46,2.31-1.38,3.23-2.08.69-.69,1.85-1.38,2.54-1.61l1.85-1.15c.46-.46,1.15-1.15,1.61-1.38.46-.46,1.38-.69,1.85-1.15.69-.69,7.38-4.15,9.69-5.07.92-.23,2.08-.69,2.77-1.15.46-.23,2.54-.92,4.61-1.38,1.61-.23,4.15-.92,5.07-1.15.92-.23,1.84-.46,2.31-.46.46.23,1.15.23,1.84.46.69,0,1.85.23,2.77.46.69.46,1.62.69,2.08.69s1.61.46,2.77,1.15c2.31.92,3.23,2.08,4.15,5.31.23,1.15.69,2.77,1.15,3.46q.69,1.61.23,2.77c-.23.92-.46,2.08-.46,3,0,2.08-.92,4.15-3.23,7.61-1.15,1.38-1.85,2.54-1.85,2.77s-.92,1.61-2.54,3c-1.38,1.38-2.54,2.77-2.54,3.23,0,0-.46.46-1.15.69-1.15.46-2.31,1.85-5.07,6-.69.92-2.54,3-3.92,4.61-1.61,1.38-3.23,3.23-3.69,4.15-.46.69-2.08,2.77-3.92,4.38-1.38,1.62-3,3.69-3.46,4.61-.23.69-1.38,2.54-2.31,3.46-.69,1.15-1.38,2.54-1.38,2.77,0,.69-.69,2.31-1.38,3.46s-1.85,4.38-1.85,5.77c0,3,2.54,4.38,7.38,4.15,2.77-.23,8.53-1.85,9.92-3,.69-.69,4.38-2.31,5.07-2.31.46,0,5.07-2.77,6.69-4.15.69-.69,1.38-1.15,1.85-1.15,0,0,.69-.23,1.38-.69.46-.46,2.08-1.62,3.69-2.31,2.31-1.15,3.69-2.08,5.31-3.69,1.38-1.15,2.31-2.31,2.77-2.31.23,0,.92-.69,1.61-1.61.69-.69,1.85-1.85,2.54-2.08.92-.46,2.08-1.61,3-2.31,2.08-1.85,4.84-4.61,6.69-5.77,1.38-.92,6.46-5.77,9-8.3.23-.46,1.61-1.62,2.54-2.54,1.15-.92,2.31-2.31,2.54-2.77.23-.46,1.15-1.38,2.08-1.85,1.15-1.15,2.08-2.08,2.77-4.38.46-1.61,1.85.23,1.85,2.54,0,2.54-4.15,10.15-6.92,13.38-.46.46-1.15,1.38-1.38,1.85-.23.69-.69,1.15-1.15,1.38-.46.23-.92.69-1.38,1.38-.69,1.38-1.61,2.77-5.77,6.92-2.08,2.08-4.61,4.61-4.84,5.3-.69.69-1.38,1.38-1.85,1.38-.23,0-1.85.92-3.46,2.31-1.38,1.38-2.77,2.54-3,2.54,0,0-.69.69-1.15,1.38-.69.69-1.38,1.61-1.61,1.61-.23.46-1.15.92-1.61,1.61-.69.69-1.15,1.15-1.61,1.15l-.46.69c-.46,1.15-6.23,5.54-9,6.92-3.92,2.08-7.61,3.92-8.53,4.84-2.77,2.08-11.07,5.31-14.53,5.31-.92,0-2.54,0-3.46.23-.92.23-2.31.23-4.38,0-3.46-.46-5.31-1.15-6.92-2.54-.46-.46-1.38-.92-1.85-.92-2.54,0-9.23-7.15-11.07-11.53-2.31-6.69-2.31-9.92-.46-16.84.46-1.84,1.15-3.69,1.15-4.38l1.61-3.46c.69-1.38,1.15-2.77,1.15-3.23l1.15-1.61c.69-.69.92-1.38.92-1.61s.69-1.15,1.15-1.85l2.31-3.23c.46-.92,1.38-2.54,2.08-3.69.92-1.15,1.85-2.77,2.31-3.46.46-.92,2.31-3.23,4.15-5.07s3.92-4.38,4.38-5.31c.69-1.15,1.61-2.54,2.08-3,1.38-1.85.69-2.08-2.08-.69-2.31.92-3.92,2.08-5.54,3.23-.69.69-2.54,1.61-3.92,2.08-1.38.69-2.77,1.61-3,1.84l-2.08,1.62c-.69.46-2.08,1.15-2.54,1.61-.69.46-1.38.92-1.61.92-.46,0-1.38.23-1.85.92-.46.46-2.08,1.38-3.46,2.31-1.62.69-3,1.85-3.69,2.31l-2.08,2.31c-.92.69-9.46,8.07-11.3,9.92-1.85,1.61-3.69,3.46-4.15,3.92-.46.23-2.77,2.54-4.84,4.84-2.08,2.31-5.3,5.07-6.69,6.46-1.38,1.38-2.77,2.77-2.77,3-.69,1.15-2.54,3.23-6.46,7.15-9.46,9.23-10.61,10.15-13.38,12.23l-2.54,1.84c-.69.69-2.31,1.61-3.92,2.08-2.08.69-2.31.69-4.38.23-4.61-.92-9.69-5.54-10.38-9-.69-3.23-1.38-9,.92-12.46.92-.92,1.85-3.23,2.77-4.84l2.77-5.07c.92-1.15,1.61-2.31,1.85-2.77.92-1.61,3-4.84,4.38-6.92.92-1.15,1.85-2.77,2.54-3.92,1.15-2.31,4.61-7.15,6-8.53.69-.92,1.61-1.84,2.08-2.54.69-1.38,4.38-5.77,6.92-9.23,1.15-1.38,2.54-3.46,3-4.38s1.15-2.31,1.85-2.77c.69-.46.92-1.15.92-1.38s.46-1.15,1.15-1.84c.92-1.38,2.77-5.54,3.23-7.38.46-1.61,2.31-2.54.69-3.69-1.38-.69-1.61-1.85-.92-2.31.23-.23,2.54-.23,4.84,0Z"/>
    <path class="cls-11" d="m954.21,539c-.69,1.84-2.77,4.61-4.38,6.69-.46.46-.92.92-.92,1.38l-2.31,1.85c-1.38.92-2.31,1.61-2.31,1.85l-1.38,1.38c-3.69,2.54-6.69,5.31-7.38,6.69-.46.69-1.38,1.61-2.08,1.84l-1.85,1.15c-.23.46-1.61,1.15-2.54,1.85-1.15.46-2.31,1.38-2.54,1.85-.69.69-3.23,2.54-8.77,6.69-.92.46-2.08,1.38-2.54,1.85s-1.85,1.38-3,1.85c-2.54,1.15-3.46,1.84-3.92,3.23-.23.69-.92,1.38-2.77,2.31-1.38.46-3.69,1.85-5.07,3-2.77,1.61-5.07,3-7.61,3.69-3,1.15-4.84,1.85-5.77,1.85-.46,0-1.38,0-1.84.23-.92.46-6.92,0-9.23-.92-.69-.23-2.08-.69-2.77-.69-.69-.23-1.61-.69-2.08-.92-.46-.23-1.38-1.15-2.54-1.85-.92-.69-2.31-1.38-2.77-2.08-2.54-1.61-6.92-6.92-6.92-8.07,0-.23-.23-.92-.69-1.38,0-.46-.46-1.84-.69-3-.23-1.15-.69-2.77-.92-3.46-.46-2.31-.23-7.38.23-9.46.46-.92.92-3.46,1.38-5.07l1.15-4.61c2.31-6.23,4.61-11.3,6.23-13.38.69-.92,1.38-2.08,1.61-2.77,1.62-3.46,2.08-4.61,2.77-5.31.46-.69,1.15-1.38,1.15-1.61,0-.46.92-2.08,1.85-3.46.92-1.38,1.85-3.23,2.08-3.69.46-.69.92-1.61,1.15-1.85,0-.69,2.77-5.07,2.77-5.31.23-.23.69-.69.92-1.15.46-.46.46-1.38.69-2.08l.46-.92-2.08-.23c-1.15-.23-6.46,2.54-8.77,2.31-4.61,0-4.61-.23-7.15-2.31-.92-.92-1.15-1.38-1.61-3.23-.69-5.31,0-4.38-.69-5.77-.46-.92-.23-1.38-.23-1.38,0-.46,1.15-.69,2.77,0q2.54,1.15,9.23,1.61c3,.23,6.92-.46,8.77-.23,1.84.23,4.38.46,5.54.46l2.31.23,1.61-1.85c1.15-1.15,2.54-4.61,3-5.77.69-1.15,1.84-2.77,2.77-3.69.92-.92,1.85-2.08,1.85-2.54.46-.69,1.84-2.54,3.92-4.84.69-1.15,2.08-2.54,2.77-3.69s1.61-2.31,2.08-2.77,1.15-1.15,1.61-1.85,1.61-2.77,2.77-4.38c2.54-3.23,3.69-5.77,3.69-6.69,0-.46.23-.92.23-1.38.23-.69.69-.69,3,.69,1.15.69,2.77,1.38,3.69,1.38s1.84.46,2.31.92c.69.69,1.61,1.15,2.31,1.61.46.23,1.61.92,2.08,1.38l3,1.84c.92.46,2.31,1.61,2.77,2.08.46.69,1.61,1.84,2.31,2.77,2.77,2.77,2.77,5.3.23,8.07-1.84,2.08-3,3.69-3.46,4.61-.69,1.15-3.46,3.92-5.3,5.31-1.61.92-1.61,1.85-2.31,2.77-.92,1.15-1.61,1.85-2.08,2.54-1.15,1.61.46,2.08,2.77,2.08h4.84q2.31,0,3.69-.46c.69-.23,4.38-.23,6.23-.23l3.46.92c.92.69,1.85,1.15,2.54,2.54.46,1.15,1.38,2.54,1.61,3,.69.92,0,2.08,0,3,0,.46-.23,1.15-.46,1.38-.23.69-.69.92-2.54,1.15-1.61.23-2.08,0-3-.46-.92-.46-1.15,0-3.23.46-.69.23-1.61.23-2.31.23,0,0-.46.23-2.31.23-4.84.23-9.46.23-10.61.23-.92,0-2.08,0-2.77.23-.69.23-3,.46-5.07.46-3.46.23-3.23-.46-4.61.69-.92.69-3,6-3,6.92-.23.69-.69,1.38-.92,1.85-.46.23-.92.92-1.15,1.61-.46.69-.69,2.08-1.61,3.23-.92.92-2.08,2.31-2.31,3-.46.69-1.15,1.61-1.61,2.08-.46.46-1.15,1.38-1.61,2.08-.23.69-1.15,1.85-1.61,2.31-.69.69-1.15,1.38-1.15,1.61,0,.46-.46,1.38-1.15,2.08-.69.92-1.85,2.77-2.31,3.92-.46,1.15-1.61,3-2.31,3.69s-1.61,2.08-2.08,3c-.23.69-.92,1.84-1.61,2.54s-1.15,1.38-1.15,2.08-.92,2.08-2.77,4.84-2.31,3.69-2.77,4.84c-.23.69-.69,1.62-1.15,2.08-1.15,1.38-2.77,4.84-3,6.92-.23,1.38-.69,2.77-.69,3.69q-.69,2.54.46,2.77c.92.46,2.31.23,5.54-.92.92-.46,2.31-.69,3-.69s1.84-.46,2.54-.69c.69-.46,1.61-.69,2.31-.92.46-.23,1.85-.69,2.54-1.15.92-.69,2.08-1.15,2.08-1.15.69,0,5.77-2.77,6.92-3.69.46-.46,1.38-.69,1.61-.69.69,0,3.92-1.85,4.15-2.54,0-.23,1.15-.92,2.54-1.61l2.77-1.61c0-.23.69-.69,1.38-1.15,3-1.85,4.15-2.77,5.54-3.92,1.38-1.38,3.46-3,7.84-5.77.92-.69,2.08-1.38,2.31-1.85l1.38-.92c.69,0,2.08-1.15,4.38-3.46,2.77-2.77,5.77-5.54,7.84-6.92,1.15-.69,5.31-5.77,6.46-7.38.46-1.15.92-1.38,1.61-1.38s.92.46,1.15.69.92,1.62,1.38,2.77c1.15,2.54,1.15,3,.23,6.23Zm-17.76-30.22h-.23.23Z"/>
    <path class="cls-11" d="m1004.96,584.44c-3.69-2.54-6.92-5.77-6.92-7.15,0-.46-.23-1.38-.69-2.08-.46-.92-1.15-5.77-1.15-9.46-.23-1.61-.23-1.84-.92-1.84s-1.15.23-1.38.69c-.46.69-4.84,3.92-7.38,5.31-.69.69-1.85,1.38-2.31,1.85-1.15,1.15-2.31,1.61-5.54,2.77-1.62.69-3.23,1.61-5.54,3.46-1.61,1.61-6.23,4.15-7.84,4.38-.69,0-1.85.69-2.54,1.38-.69.46-2.08,1.15-3,1.38-.69.46-2.08.92-2.77,1.38q-1.38.92-3.69.69c-2.54-.46-4.61-1.38-6.69-3.23-1.61-1.15-2.08-1.61-4.61-3.23-1.38-1.15-3-3.23-4.15-5.54-.23-.69-.92-2.08-1.38-2.77-.92-2.08-1.15-3.69-1.61-7.15-.46-3.92-.23-8.76.23-12.46q.46-3.23,2.31-7.38l3.23-6.69c.69-2.08,2.08-4.38,2.77-5.54.69-.92,1.84-2.31,2.08-3,.46-.69,1.38-2.08,2.31-3,.92-.92,1.85-2.54,2.54-3.46.46-.92,2.08-3,3.23-4.61,1.38-1.61,2.77-3.23,3-3.92.46-1.15,4.61-6,9.46-10.38,1.61-1.38,4.15-3.23,5.54-4.38,1.85-1.61,3.69-3,7.84-5.3,3-1.38,6.23-1.15,6.92-2.08,1.15-.69,2.08-.46,2.08-.46.23,0,.92-.46,1.62-.23.69.46,2.08.46,3,.69.92.23,3.46-.23,5.31.23,1.38.69,2.31.23,3,.23.46,0,2.08.23,2.31.46.69.46.92-.23,1.61,0,.69.23,1.85,1.15,2.31,1.61.69.69,2.08,1.85,3.23,2.77,1.38.92,2.77,2.08,3.46,2.77.69.46,1.38.46,1.61.69,1.85,2.08,5.07,4.38,5.54,4.84.23.46,1.38,3,2.54,3.46.92-.92,1.15-1.38.92-2.54-.23-1.15,0-1.61,0-1.85.69-.46,3.92-.23,5.31.23.69.23,1.61.69,2.31.69.69.23,1.85.69,2.31,1.38.69.69,2.08,1.85,3.23,2.77,3,2.31,6,5.54,6.23,6.46,0,.69.69,2.08,1.38,3.23,2.31,3,1.84,4.84-1.38,8.3-4.38,4.15-5.07,5.07-6,6.69-.92,1.61-3.46,4.84-6,7.38l-1.15,1.15c0,.69-.69,1.61-1.15,1.84-.23.23-.69.92-.92,1.61-1.38,2.77-2.31,4.38-3.23,5.54-.46.46-1.38,1.61-1.85,2.77l-1.15,2.08c0,.23-.69,1.38-1.38,2.77-.69,1.38-1.15,2.77-1.38,3-.23.46-.46.92-.46,1.38,0,.23-.23,1.38-.92,2.54-1.15,2.08-2.08,4.15-2.08,5.31,0,.23-.23.92-.46,1.15-.69,1.15-.69,2.77,0,3,.69.23,4.84-1.38,9-3.23,1.85-1.15,3.46-1.85,3.92-1.85.92-.46,4.61-3,7.15-5.07,1.85-1.61,3.92-3,5.54-3.92,1.38-.69,3.23-1.38,3.46-1.84.69-.46,2.08-1.62,3.46-2.31,1.38-.92,2.08-2.08,2.54-2.54,1.85-1.85,6.92-6.23,7.15-7.15.23-.46,2.31-2.31,3-2.54.69-.46,1.38-1.15,2.77-2.54s4.61-3.92,4.61-3.92c.69,0,8.77-8.31,9.92-10.15,1.84-3,4.61-3.92,5.3-3.69q.46.46-.69,3.46c-.92,2.08-2.08,4.15-2.77,4.84-.23.23-.92,1.38-1.38,2.31-.23,1.15-1.38,2.54-2.08,3.46-.69.92-1.38,1.85-1.61,2.54-.46.46-1.15,1.15-1.61,1.38-.46.46-1.15,1.15-1.38,1.85-.23.69-.92,1.38-1.15,1.61-.46.23-1.62,1.15-2.54,2.31-4.15,4.61-5.77,6-7.84,7.84-1.38.92-2.54,2.08-2.54,2.31l-1.61,1.61c-.92.46-2.31,1.61-3.46,2.54-3.23,2.77-4.15,3-4.84,3.69l-4.38,4.38c-1.85,1.61-2.31,2.54-3.92,3.92-.69.46-1.84.92-2.08,1.61-.69.46-1.38,1.38-2.54,2.08-1.15.92-2.08,1.61-3,2.54-.69,1.15-2.77,2.54-3.46,3-.69.23-1.85.92-2.54,1.62-.69.46-1.61,1.15-2.08,1.15-.69,0-2.31.46-3.92.69-5.31,1.15-7.84.46-15.46-4.61Zm-46.83-13.15l3-.92c1.15,0,10.38-4.84,12.69-6.69,1.38-1.15,3.23-2.31,3.69-2.31.46-.46,1.61-1.15,2.31-1.85.69-.46,1.61-1.38,2.31-1.84.69-.46,1.62-.92,2.08-1.38s1.85-1.61,3.23-2.54c1.38-.92,3.46-2.54,4.15-3.23.92-.92,2.54-2.31,3.46-3,1.15-.69,2.08-1.61,2.08-1.84l3.69-3,.69-.46c1.15-2.77,2.77-6.23,4.84-9.92,2.08-3.46,6.23-8.3,7.84-10.84.23-.92,1.15-1.84,1.61-2.08.23-.23-.23,0,.69-.92l.46-.46c-.23-.23-.69-.69-1.15-.92-1.15-.69-1.85-.69-5.54-.69-4.84.23-6.92.69-10.61,2.77-1.15.92-2.54,1.38-3.23,1.38s-1.38.46-2.54,1.38c-.92.69-2.08,1.38-2.54,1.61-1.15.23-3.92,2.08-6.23,4.38-.92.69-2.08,1.61-2.31,1.61s-.92.46-1.38,1.15c-.69.69-1.15,1.15-1.38,1.15s-.92.46-1.15.92c-1.38,1.85-4.84,4.84-7.61,7.61-4.61,4.61-7.84,9.46-8.53,10.84-.46.69-1.15,1.61-1.62,2.08-1.15,1.38-2.77,4.15-3.46,6.23l-1.38,2.54c-1.38,1.38-3.23,4.38-3.23,5.07,0,.46-.23,1.38-.69,2.08-.69,1.85-.69,2.08,0,2.54,1.15.69,3.23.46,5.77-.46Z"/>
    <path class="cls-11" d="m1147.06,544.54c-.23.46-.92,1.38-1.38,2.31-.23.69-.92,1.84-1.61,2.54-.69.92-1.38,1.85-1.38,2.08s-1.38,1.84-3,3.46c-1.85,1.84-3.23,3.46-3.23,3.92-.23.23-.69.92-1.38,1.15-.69.23-2.08,1.15-3.23,2.31-.92,1.15-2.31,2.31-3.23,2.77-.69.23-2.54,1.84-4.15,3.46-1.61,1.38-3.23,3-4.15,3.46-.92.46-1.85,1.62-2.54,2.31-.92,1.15-2.54,2.08-6.23,3.92-2.77,1.62-5.3,3-5.77,3.46-.23.46-1.15.92-1.61.92-.46.23-1.38.69-2.08,1.38-.69.46-2.08,1.38-3.23,1.85-1.15.69-2.31,1.38-2.54,1.38-.23.23-.69.69-1.15.69-.23,0-.69.23-1.38.46-1.62.92-4.38,2.31-5.08,2.31-.23,0-1.38.23-2.54.92-1.38.92-2.08,1.15-3.46.92-.69-.23-1.61-.46-2.08-.69-.46-.23-1.61-.46-2.77-.46-1.38,0-2.31-.23-3.46-.92-.69-.46-1.85-.92-2.54-1.15-1.38-.23-3.92-1.85-5.77-3.69-.92-.69-2.08-1.84-2.77-2.08-1.15-.69-1.61-1.15-2.54-3.23-.69-1.38-1.62-3.92-2.08-5.54-.92-3-.92-3.92-.69-6.92.23-1.85.46-3.92.46-4.84.23-.69.69-2.54.92-4.15.23-1.38.92-3.23,1.15-4.15.46-.92.69-2.08.69-2.54,0-1.15.46-2.31,1.38-3.23,1.15-1.15,4.61-8.07,4.61-8.76,0-.46.69-1.85,1.61-3,1.15-1.38,2.31-3.46,2.77-4.61.69-1.38,1.61-2.77,2.08-3.23.46-.69,2.08-2.77,3.23-4.61,1.15-2.08,2.31-3.92,2.54-4.15.23-.23.69-.69,1.15-1.38.23-.23,2.77-3.23,3.23-3.92,1.85-1.84,4.15-4.61,4.15-5.07,0-.23.92-1.61,2.31-3,2.54-2.54,4.38-6.23,5.3-7.38.69-.92,1.38-1.85,1.61-2.31.46-.69.92-1.38,1.15-2.08.23-.92.23-1.38,1.62-1.61l1.84-.46c.46,0,3.46,1.15,5.07,2.08,3.23,1.85,6.69,4.61,7.38,6.23,0,.69.92,1.61,1.38,2.08,1.15.92,1.15,1.15,1.38,4.38l.23,3.23-1.15,2.08c-.69,1.15-1.61,2.77-2.31,3.46-1.38,1.84-3,5.3-4.38,7.38-.69,1.38-1.85,3-2.54,3.69-.69.69-1.38,1.38-1.38,1.61s-.69,1.15-1.61,2.08c-.69.92-2.08,2.77-2.77,3.92-.46,1.38-1.15,2.54-1.38,2.54-.23.23-.69,1.15-1.15,2.08l-1.38,2.08c-.23.23-.92.92-1.38,2.08l-1.38,1.85c-.69.23-1.84,2.31-2.77,4.61-.23.92-.92,1.85-1.15,2.08-.23.23-.69,1.15-.92,1.85-.23.69-.69,1.85-1.15,2.77-4.38,8.77-5.07,10.15-5.31,11.76,0,.69-.69,2.54-1.38,3.69-.69,1.85-1.15,2.54-.69,3,0,.23.69.92.92,1.61.92,1.15,1.15,1.38,2.31,1.15,2.31-.23,3.92-.92,5.77-1.85.92-.69,4.15-2.54,7.15-4.15,4.84-2.54,6.92-3.92,10.84-6.46.69-.46,1.61-1.15,2.31-1.38.46-.23,1.15-.92,1.61-1.15.23-.46,1.62-1.38,3-2.54,1.38-.69,2.77-1.62,3-2.08l2.08-1.38c1.85-1.38,5.77-4.38,8.53-6.92.92-.92,3-2.54,4.61-3.69,4.84-3.46,12-10.38,12.46-11.76.46-.92,1.38-1.15,1.38-.23l.46,3.23c.69,3.46.46,5.3-.46,6.23Zm-34.6-68.05c-1.62-2.31-2.08-5.07-.69-6.92.46-.69.92-1.85,1.15-2.54.23-1.61,1.38-3.23,3-5.07,1.61-1.61,3.69-4.38,4.15-5.77,0-.69.46-1.38,1.15-2.08.23-.46.69-1.38.69-1.61s0-.69.23-1.15c0-.23.69-.46,1.38-.46,1.15,0,1.61.46,3.69,2.31,1.15,1.38,2.54,3,3,3.69.23.69.92,1.38,1.62,1.61.46.46,1.15,1.15,1.38,1.85s.69,1.61,1.15,2.31c.69.69.69,1.85.92,4.15l.23,3.23-2.31,2.08c-1.38,1.38-2.54,2.31-2.77,2.31s-5.07,5.77-5.07,6.23c0,.23-.46.69-.92.92-.46.23-1.15,1.15-1.61,1.84-.46,1.15-.69,1.38-2.08,1.62-1.38.23-1.85,0-3-.69-1.15-.92-4.15-5.07-4.15-5.77,0-.23-.46-.92-1.15-2.08Z"/>
    <path class="cls-11" d="m1165.05,497.25c4.61.23,5.07.23,8.77,2.31,3.92,2.31,4.61,2.77,6,5.77,2.31,4.61,2.08,6.23-1.61,13.84-1.85,3.92-2.77,5.77-4.15,6.92-.92,1.15-1.84,2.08-1.84,2.31,0,.46-.23.92-.69,1.15l-1.85,3.23c-.69,1.38-1.61,3-2.31,3.46l-1.38,2.08c-.92,1.85-2.08,5.54-1.85,5.77.23,0,.69-.23,1.15-.69.46-.23,1.61-1.15,2.54-1.61,1.38-1.15,2.08-1.38,4.15-3.23,2.31-2.31,6.92-5.54,7.61-5.54.23,0,1.15-.69,1.84-1.38.46-.46,8.07-6.69,8.77-7.15,3-1.85,4.84-3,6.69-4.38,3.23-2.31,5.77-4.15,7.38-5.07.92-.46,2.31-1.38,3.23-2.08.69-.69,1.85-1.38,2.54-1.61l1.85-1.15c.46-.46,1.15-1.15,1.61-1.38.46-.46,1.38-.69,1.85-1.15.69-.69,7.38-4.15,9.69-5.07.92-.23,2.08-.69,2.77-1.15.46-.23,2.54-.92,4.61-1.38,1.61-.23,4.15-.92,5.07-1.15.92-.23,1.84-.46,2.31-.46.46.23,1.15.23,1.84.46.69,0,1.85.23,2.77.46.69.46,1.62.69,2.08.69s1.61.46,2.77,1.15c2.31.92,3.23,2.08,4.15,5.31.23,1.15.69,2.77,1.15,3.46q.69,1.61.23,2.77c-.23.92-.46,2.08-.46,3,0,2.08-.92,4.15-3.23,7.61-1.15,1.38-1.85,2.54-1.85,2.77s-.92,1.61-2.54,3c-1.38,1.38-2.54,2.77-2.54,3.23,0,0-.46.46-1.15.69-1.15.46-2.31,1.85-5.07,6-.69.92-2.54,3-3.92,4.61-1.61,1.38-3.23,3.23-3.69,4.15-.46.69-2.08,2.77-3.92,4.38-1.38,1.62-3,3.69-3.46,4.61-.23.69-1.38,2.54-2.31,3.46-.69,1.15-1.38,2.54-1.38,2.77,0,.69-.69,2.31-1.38,3.46s-1.85,4.38-1.85,5.77c0,3,2.54,4.38,7.38,4.15,2.77-.23,8.53-1.85,9.92-3,.69-.69,4.38-2.31,5.07-2.31.46,0,5.07-2.77,6.69-4.15.69-.69,1.38-1.15,1.85-1.15,0,0,.69-.23,1.38-.69.46-.46,2.08-1.62,3.69-2.31,2.31-1.15,3.69-2.08,5.31-3.69,1.38-1.15,2.31-2.31,2.77-2.31.23,0,.92-.69,1.61-1.61.69-.69,1.85-1.85,2.54-2.08.92-.46,2.08-1.61,3-2.31,2.08-1.85,4.84-4.61,6.69-5.77,1.38-.92,6.46-5.77,9-8.3.23-.46,1.61-1.62,2.54-2.54,1.15-.92,2.31-2.31,2.54-2.77.23-.46,1.15-1.38,2.08-1.85,1.15-1.15,2.08-2.08,2.77-4.38.46-1.61,1.85.23,1.85,2.54,0,2.54-4.15,10.15-6.92,13.38-.46.46-1.15,1.38-1.38,1.85-.23.69-.69,1.15-1.15,1.38-.46.23-.92.69-1.38,1.38-.69,1.38-1.61,2.77-5.77,6.92-2.08,2.08-4.61,4.61-4.84,5.3-.69.69-1.38,1.38-1.85,1.38-.23,0-1.85.92-3.46,2.31-1.38,1.38-2.77,2.54-3,2.54,0,0-.69.69-1.15,1.38-.69.69-1.38,1.61-1.61,1.61-.23.46-1.15.92-1.61,1.61-.69.69-1.15,1.15-1.61,1.15l-.46.69c-.46,1.15-6.23,5.54-9,6.92-3.92,2.08-7.61,3.92-8.53,4.84-2.77,2.08-11.07,5.31-14.53,5.31-.92,0-2.54,0-3.46.23-.92.23-2.31.23-4.38,0-3.46-.46-5.31-1.15-6.92-2.54-.46-.46-1.38-.92-1.85-.92-2.54,0-9.23-7.15-11.07-11.53-2.31-6.69-2.31-9.92-.46-16.84.46-1.84,1.15-3.69,1.15-4.38l1.61-3.46c.69-1.38,1.15-2.77,1.15-3.23l1.15-1.61c.69-.69.92-1.38.92-1.61s.69-1.15,1.15-1.85l2.31-3.23c.46-.92,1.38-2.54,2.08-3.69.92-1.15,1.85-2.77,2.31-3.46.46-.92,2.31-3.23,4.15-5.07s3.92-4.38,4.38-5.31c.69-1.15,1.61-2.54,2.08-3,1.38-1.85.69-2.08-2.08-.69-2.31.92-3.92,2.08-5.54,3.23-.69.69-2.54,1.61-3.92,2.08-1.38.69-2.77,1.61-3,1.84l-2.08,1.62c-.69.46-2.08,1.15-2.54,1.61-.69.46-1.38.92-1.61.92-.46,0-1.38.23-1.85.92-.46.46-2.08,1.38-3.46,2.31-1.62.69-3,1.85-3.69,2.31l-2.08,2.31c-.92.69-9.46,8.07-11.3,9.92-1.85,1.61-3.69,3.46-4.15,3.92-.46.23-2.77,2.54-4.84,4.84-2.08,2.31-5.3,5.07-6.69,6.46-1.38,1.38-2.77,2.77-2.77,3-.69,1.15-2.54,3.23-6.46,7.15-9.46,9.23-10.61,10.15-13.38,12.23l-2.54,1.84c-.69.69-2.31,1.61-3.92,2.08-2.08.69-2.31.69-4.38.23-4.61-.92-9.69-5.54-10.38-9-.69-3.23-1.38-9,.92-12.46.92-.92,1.85-3.23,2.77-4.84l2.77-5.07c.92-1.15,1.61-2.31,1.85-2.77.92-1.61,3-4.84,4.38-6.92.92-1.15,1.85-2.77,2.54-3.92,1.15-2.31,4.61-7.15,6-8.53.69-.92,1.61-1.84,2.08-2.54.69-1.38,4.38-5.77,6.92-9.23,1.15-1.38,2.54-3.46,3-4.38s1.15-2.31,1.85-2.77c.69-.46.92-1.15.92-1.38s.46-1.15,1.15-1.84c.92-1.38,2.77-5.54,3.23-7.38.46-1.61,2.31-2.54.69-3.69-1.38-.69-1.61-1.85-.92-2.31.23-.23,2.54-.23,4.84,0Z"/>
    <g>
      <path class="cls-11" d="m618.49,663.15c6.92.92,13.61,1.38,16.15,2.08,2.31.69,7.84,3.92,9.69,4.84.46.23,1.38,1.15,1.85,1.15,1.38.69,3.46,1.85,3.92,2.54.23.23,1.15,1.15,2.54,1.61.92.69,1.84,1.38,1.84,1.61,0,0,.46,1.15,1.85,1.85,1.61.92,2.77,2.54,3.69,3.69.92,1.15,1.38,2.08,1.61,2.08s.23.46.46,1.15c.23.23.46.69.92.92.46.46,2.31,4.38,3,7.38.46,1.38,1.38,3.23,1.38,3.69.46.69,1.38,5.07,1.15,7.15.46,6.46,0,14.07-1.38,17.76-1.61,4.61-1.38,3.69-4.61,9.23-2.31,3.92-2.54,4.38-3.46,5.08-.23.23-.69,1.15-.92,1.84-.46,1.15-2.77,2.31-5.54,6-.69.92-2.08,2.08-3,3-1.85,1.85-5.77,4.61-6.92,4.61-.92,0-2.54,1.15-4.15,1.61-1.38.46-3,.69-3.69.92-.46.23-1.15.92-1.61,1.15-1.61.92-4.15,1.61-5.77,1.61-.92,0-2.08.46-2.77.92-.92.23-2.08.69-2.54.69s-1.84.69-3.23,1.38c-2.08.92-3,1.15-5.07,1.38-1.38.23-2.54.46-2.77.69-.46,0-1.85.23-2.77.23l-3.69.92c-.92.46-2.08,1.15-3,1.15-.69,0-1.85.46-2.54.46-.46.23-3,.23-5.31.46-2.31,0-6.92.23-10.38.23-7.84,0-14.99-.46-16.15-1.38-1.15-.92-2.08-.92-2.77.23-.46.69-1.61,2.08-3,4.15-1.38,2.08-2.08,3.69-2.31,3.69s-.46.46-.46.92c0,.69-2.08,3-3.46,4.38l-1.15,1.85c0,.23-.69,2.54-2.08,4.38-2.31,4.38-3.23,6-3.23,6.46,0,.23-.69,1.15-1.38,2.08-.92.69-1.61,1.85-1.61,2.31s-.23.92-.69,1.38c-.23.23-.69.69-.69,1.15,0,.23-.23,1.15-.92,1.85s-1.38,1.85-1.61,2.54c-.23.92-1.15,2.08-1.61,3-.46.69-1.38,2.08-1.62,3.23-.46.92-2.08,2.31-3,3.23-.92,1.15-2.08,2.77-2.54,3.23-1.61,1.85-1.85,1.61-3.46,0-1.15-1.15-1.15-1.38-2.54-1.15-1.38.23-2.54-.92-6.69-1.61-1.38-.23-5.54-4.38-6.46-6.69s-1.38-3.23-1.38-4.61c0-.46.23-1.38,0-1.85-.46-1.15,0-1.38.69-3,.46-1.15,1.61-2.77,1.85-3.23.46-.69.92-1.38.92-1.61s.69-.92,1.61-2.08c1.38-1.61,1.62-3.23,2.08-4.61.46-1.15,1.15-3.46,2.08-4.38,2.08-2.08,3.92-4.38,8.53-12.46,6-10.61,7.38-12.22,8.3-12.22q1.15,0,1.38-1.85c0-1.84,0-2.54.92-4.15.69-1.15,1.15-2.31,1.85-2.77,0-.23.46-.92.69-1.61.46-.46,1.61-1.38,1.85-2.08l.69-1.85c1.15-2.54,4.15-8.3,4.61-9,.92-.92,3.92-5.07,3.92-6,0-.69.23-1.15.69-1.62.23-.23,1.61-2.31,2.77-4.38,3-5.07,6.92-10.84,7.15-11.53.23-.69,3.23-4.84,3.23-5.3,0-.23.23-.69.69-1.15s1.15-1.85,1.61-2.77c.46-.92,1.15-2.31,1.85-3,.69-.69,1.38-1.85,1.61-2.08.46-1.15.92-3,2.31-3.92.46-.46,1.15-1.15,1.38-1.85.23-.69.69-1.38.92-1.61.23-.23.92-.92,1.38-1.85.69-.92,1.38-2.31,1.85-2.77,1.15-.92,3-3.23,3-4.38,0-.92-2.31-1.15-4.84-.92l-4.61.92c-1.61,0-3.46.69-4.38.92-.92.46-2.08.69-2.54.69s-1.15.23-1.62.46c-1.15.69-6,1.61-7.84,1.61s-3.69-1.38-3.69-2.54c0-.92-.46-4.38-1.61-5.54-.46-.46-.69-1.15-.69-1.61s0-1.15-.46-1.61c-.46-.92-.46-1.15,0-1.38.23-.46,1.15-.46,1.84-.23,1.85.69,3.46,0,7.15-.69,2.31-.46,4.84-1.15,6.23-1.61,1.15,0,3.46-.69,5.07-.92,1.85-.69,4.38-.92,6.46-1.15,2.08-.23,4.38,0,5.54-.23.92-.23,3.46-.46,5.77-.46,2.08,0,5.54-.23,7.61-.46,5.31-.69,16.61-.46,20.07,0Zm-.69,12.92c-1.61-.23-3-.23-3.69,0h-4.15c-4.15,0-4.38,0-3,1.61.46.69,1.38,1.38,2.08,1.85.69.23,1.85.69,1.62,1.38-.23.46.46.92.92,1.38.69.69.69,1.15.46,4.38q-.23,3.46-1.38,4.38c-1.62,1.62-3.69,3.69-3.69,4.38,0,.92-2.08,4.84-3.92,6.46s-3.69,4.38-4.15,6c-.23.69-.69,1.61-.92,1.84-.46.46-1.38,1.85-1.85,3.23-1.85,5.77-2.77,6.92-3.92,8.76-1.61,2.54-3.23,6.23-3.23,7.15,0,.23-.92.92-2.08,2.08-.92.92-1.85,1.85-2.31,2.54-.23.69-.69,2.54-1.85,3.23-.92.46-1.38,2.08-2.08,3-.69.92-1.15,1.84-1.38,2.31-.92,1.15-3.69,4.61-3.69,5.07,0,.23-.46,1.15-.92,1.84-2.08,3.23-3.69,6-2.31,6.69.46.23,1.38.23,2.31,0,1.15-.23,2.31-.46,2.77-.23s.92,0,1.15-.46c.92-.46,1.38-.46,1.85-.46s1.38.23,2.08.23c.23.23,2.77.23,5.07,0,3.46-.23,4.84-.46,6.92-1.15,1.61-.69,3-1.15,4.38-.92,1.85,0,2.77.23,6-1.15,1.15-.46,2.77-.69,3.46-.69.92,0,2.77-.46,5.54-1.38.46,0,1.85-1.15,3-2.08,1.61-1.38,6-3.46,10.38-5.3,2.31-.92,4.38-2.08,6.46-3.92.69-.69,2.08-1.38,2.54-1.61,4.15-2.77,8.53-5.77,10.38-8.07,1.15-1.38,2.08-3,2.31-3.46.69-.92,3.23-4.38,6-9.23,1.61-2.77,1.38-3,2.08-6.46.69-3.69,1.38-9,.23-10.15-.23-.23-.69-1.15-.92-2.08l-1.38-3.23c-.69-1.84-3.69-5.54-4.61-5.54-.46,0-.92-.46-1.15-.92,0-.23-.92-.92-2.08-1.61-1.38-.92-2.54-2.31-3.46-3-1.15-.69-2.08-1.15-2.31-1.15s-.69-.23-.69-.69c-.46-.69-.92-1.15-1.15-1.15s-.92-.23-1.85-.69c-.69-.23-1.38-.69-1.61-.69s-1.38-.23-2.31-.69c-2.08-.69-6.46-1.15-10.61-1.38-1.61,0-3.92,0-5.31-.23Z"/>
      <path class="cls-11" d="m666.02,808.01c-.92-.69-3.69-5.07-6.23-8.07-1.38-1.38-2.54-3.69-2.54-4.84,0,0-.23-1.38-.69-2.31-.92-3.23-1.38-9.69-.92-12.22.23-1.15.69-2.77.69-3.69,0-1.15.46-3.23.92-4.61.69-1.38,1.15-2.77,1.15-3,0-.69,3.46-8.07,4.15-9,.69-.69.92-1.38.92-1.84,0-.23.23-.92.69-1.85.46-.69.69-1.61.69-1.85s.46-.69.69-.69c.69-.46,1.15-.92,1.38-1.84.46-.92,1.15-2.08,2.08-3,.92-1.15,2.08-2.31,2.54-2.77,1.15-1.85,3-4.15,5.07-6.23.92-1.15,1.85-2.08,1.85-2.08,0-.46,4.15-4.15,8.3-7.38,5.07-4.15,7.84-6.23,9.69-7.15.92-.46,2.08-.92,2.31-1.15.46-.69,4.61-3.46,5.07-3.46.23,0,1.15-.23,1.85-.69,1.15-.23,2.31-.69,3.46-.69,1.38,0,3.69-.46,4.84-1.15,1.15-.46,3.92-.46,4.38-.46,1.61,0,3.46.69,5.3,2.08,1.38,1.38,5.07,3.92,5.77,4.38,1.38,1.15,2.77,2.08,3.23,2.31.46.23,1.38.92,1.85,1.38.46.46,1.38,1.38,2.31,1.84,3.69,2.77,7.84,10.61,8.07,15.46,0,1.85,0,2.31-.92,3.46-.69.69-1.15,1.61-1.15,1.61,0,.23-.69,1.38-1.38,2.31l-2.08,3.23c-.23.46-.92,1.38-1.38,1.62-.69.23-2.08,1.38-3.46,2.54-.92.92-2.31,2.08-3,2.31-.46,0-1.84.69-3,1.38-1.15.92-3,1.84-3.92,2.08-1.15.23-2.31.69-2.54.92-.92.69-7.15,3.92-8.3,4.15-.46.23-1.38.46-1.85,1.15-.46.46-1.15.69-1.38.69-3.69,1.38-5.77,1.38-6.69,2.08-1.15,1.15-3.23,1.15-4.61,1.15-.69,0-3,0-5.07.23-2.31.23-4.15.46-4.38.23-.23-.23-1.15-.23-2.54-.23-2.08-.23-2.31-.23-3.23.69-.69.46-.92,1.15-.92,1.62s-.69,1.84-1.38,3.23c-.69,1.15-1.15,2.54-1.15,3s-.23,1.38-.69,2.08l-.92,2.31c0,.69-.46.92-.46,1.15-.69.23-.46,2.54.23,4.15.23.92.69,1.84.92,2.54.69,2.77,3.23,4.84,8.07,6.92.23,0,.23.23.46.23l.23.23c2.31,0,5.31-.23,9-.69,1.38-.23,3.23-.46,4.61-.46,1.15,0,2.54-.23,3.23-.46.23-.23,1.38-.69,2.08-.69.69-.23,1.61-.46,2.08-.69.69-.46,5.77-2.08,6.46-2.08.46,0,.92-.23,1.38-.69.46-.23,1.15-.69,1.38-.69.92,0,5.07-1.38,8.07-3,1.38-.92,2.77-1.38,3-1.38.46,0,1.15-.23,1.38-.69.69-.46,1.61-.92,2.54-1.15.69-.46,1.84-.92,2.77-1.38.69-.46,1.38-.92,1.61-.92l3.23-1.85c1.61-1.15,3.92-2.54,5.07-3,1.38-.46,3.23-1.61,4.15-2.31,1.85-1.38,6-4.15,7.61-5.07l2.31-1.85c.92-.92,2.31-1.84,2.77-2.08s1.61-.92,2.31-1.61c.92-.69,2.31-1.85,3.69-2.54,1.15-.92,2.31-1.84,2.31-2.08.23-.23.69-.69,1.15-.69,1.38-.69,3.46-2.31,6.69-5.54,3.23-3,3.69-3,3.46.46,0,2.77-1.85,6.23-4.15,9.23l-2.08,3.23c-.46.92-1.85,2.31-2.77,3-1.15,1.15-2.77,2.54-3.46,3.46-4.38,4.61-6.46,6.69-9,8.3-1.15.69-2.08,1.38-2.08,1.61s-.46.46-1.15.92c-.69.23-1.61,1.15-2.31,1.84-.69.69-1.38,1.38-1.61,1.38s-.92.23-1.38.92c-1.15.69-3.23,2.08-6.46,3.46-.92.23-2.31,1.15-3,1.38-.69.46-1.85.69-2.31.69s-1.61.69-2.54,1.38c-.92.69-2.08,1.61-2.54,1.61-.46.23-1.15.46-1.62.92-.69.69-4.15,2.54-5.54,3-.46,0-1.84.69-2.77,1.38-3.23,2.08-8.07,4.38-9.92,4.61-6,.92-8.53,1.61-10.84,2.08-14.76,2.31-26.76,1.38-39.21-5.77Zm60.9-72.2c-.69.23-2.31.69-4.15.92-2.31.23-3,.69-4.38,1.61-1.15.92-2.08,1.38-2.31,1.38s-.92.46-1.15.69c-.46.46-.69.69-1.15.69-.23,0-1.61,1.15-3,2.31s-2.77,2.54-3.46,2.77c-.69.23-2.31,1.61-3.69,3-1.62,1.38-3,3-3.46,3.46-1.85,1.85-3.69,3.69-3.69,4.15,0,0-.92.92-1.85,2.08-.92.92-1.84,2.31-2.31,3-.46.69-.92,1.61-1.38,2.08q-.46.69,0,.92c.69.23,7.84-1.38,10.84-2.54.92-.46,2.54-.92,3.46-1.15.92-.23,2.08-.69,2.31-.92.46-.23,1.38-.69,2.31-.92,1.84-.46,7.15-3,9-4.61.46-.46,1.15-.69,1.38-.69s.92-.46,1.61-.92c.69-.46,1.62-1.15,2.31-1.38.46-.23,1.85-1.38,2.77-2.31.69-.92,2.08-2.31,3-3.23,1.61-1.61,3.23-4.15,3.92-6.23.46-1.38,0-3.69-.69-4.15-.92-.46-5.08-.46-6.23,0Z"/>
      <path class="cls-11" d="m797.73,723.58c4.61.23,5.07.23,8.77,2.31,3.92,2.31,4.61,2.77,6,5.77,2.31,4.61,2.08,6.23-1.61,13.84-1.85,3.92-2.77,5.77-4.15,6.92-.92,1.15-1.84,2.08-1.84,2.31,0,.46-.23.92-.69,1.15l-1.85,3.23c-.69,1.38-1.61,3-2.31,3.46l-1.38,2.08c-.92,1.85-2.08,5.54-1.85,5.77.23,0,.69-.23,1.15-.69.46-.23,1.61-1.15,2.54-1.61,1.38-1.15,2.08-1.38,4.15-3.23,2.31-2.31,6.92-5.54,7.61-5.54.23,0,1.15-.69,1.84-1.38.46-.46,8.07-6.69,8.77-7.15,3-1.85,4.84-3,6.69-4.38,3.23-2.31,5.77-4.15,7.38-5.07.92-.46,2.31-1.38,3.23-2.08.69-.69,1.85-1.38,2.54-1.61l1.85-1.15c.46-.46,1.15-1.15,1.61-1.38.46-.46,1.38-.69,1.85-1.15.69-.69,7.38-4.15,9.69-5.07.92-.23,2.08-.69,2.77-1.15.46-.23,2.54-.92,4.61-1.38,1.61-.23,4.15-.92,5.07-1.15.92-.23,1.84-.46,2.31-.46.46.23,1.15.23,1.84.46.69,0,1.85.23,2.77.46.69.46,1.62.69,2.08.69s1.61.46,2.77,1.15c2.31.92,3.23,2.08,4.15,5.31.23,1.15.69,2.77,1.15,3.46q.69,1.61.23,2.77c-.23.92-.46,2.08-.46,3,0,2.08-.92,4.15-3.23,7.61-1.15,1.38-1.85,2.54-1.85,2.77s-.92,1.61-2.54,3c-1.38,1.38-2.54,2.77-2.54,3.23,0,0-.46.46-1.15.69-1.15.46-2.31,1.85-5.07,6-.69.92-2.54,3-3.92,4.61-1.61,1.38-3.23,3.23-3.69,4.15-.46.69-2.08,2.77-3.92,4.38-1.38,1.62-3,3.69-3.46,4.61-.23.69-1.38,2.54-2.31,3.46-.69,1.15-1.38,2.54-1.38,2.77,0,.69-.69,2.31-1.38,3.46s-1.85,4.38-1.85,5.77c0,3,2.54,4.38,7.38,4.15,2.77-.23,8.53-1.85,9.92-3,.69-.69,4.38-2.31,5.07-2.31.46,0,5.07-2.77,6.69-4.15.69-.69,1.38-1.15,1.85-1.15,0,0,.69-.23,1.38-.69.46-.46,2.08-1.62,3.69-2.31,2.31-1.15,3.69-2.08,5.31-3.69,1.38-1.15,2.31-2.31,2.77-2.31.23,0,.92-.69,1.61-1.61.69-.69,1.85-1.85,2.54-2.08.92-.46,2.08-1.61,3-2.31,2.08-1.85,4.84-4.61,6.69-5.77,1.38-.92,6.46-5.77,9-8.3.23-.46,1.61-1.62,2.54-2.54,1.15-.92,2.31-2.31,2.54-2.77.23-.46,1.15-1.38,2.08-1.85,1.15-1.15,2.08-2.08,2.77-4.38.46-1.61,1.85.23,1.85,2.54,0,2.54-4.15,10.15-6.92,13.38-.46.46-1.15,1.38-1.38,1.85-.23.69-.69,1.15-1.15,1.38-.46.23-.92.69-1.38,1.38-.69,1.38-1.61,2.77-5.77,6.92-2.08,2.08-4.61,4.61-4.84,5.3-.69.69-1.38,1.38-1.85,1.38-.23,0-1.85.92-3.46,2.31-1.38,1.38-2.77,2.54-3,2.54,0,0-.69.69-1.15,1.38-.69.69-1.38,1.61-1.61,1.61-.23.46-1.15.92-1.61,1.61-.69.69-1.15,1.15-1.61,1.15l-.46.69c-.46,1.15-6.23,5.54-9,6.92-3.92,2.08-7.61,3.92-8.53,4.84-2.77,2.08-11.07,5.31-14.53,5.31-.92,0-2.54,0-3.46.23-.92.23-2.31.23-4.38,0-3.46-.46-5.31-1.15-6.92-2.54-.46-.46-1.38-.92-1.85-.92-2.54,0-9.23-7.15-11.07-11.53-2.31-6.69-2.31-9.92-.46-16.84.46-1.84,1.15-3.69,1.15-4.38l1.61-3.46c.69-1.38,1.15-2.77,1.15-3.23l1.15-1.61c.69-.69.92-1.38.92-1.61s.69-1.15,1.15-1.85l2.31-3.23c.46-.92,1.38-2.54,2.08-3.69.92-1.15,1.85-2.77,2.31-3.46.46-.92,2.31-3.23,4.15-5.07s3.92-4.38,4.38-5.31c.69-1.15,1.61-2.54,2.08-3,1.38-1.85.69-2.08-2.08-.69-2.31.92-3.92,2.08-5.54,3.23-.69.69-2.54,1.61-3.92,2.08-1.38.69-2.77,1.61-3,1.84l-2.08,1.62c-.69.46-2.08,1.15-2.54,1.61-.69.46-1.38.92-1.61.92-.46,0-1.38.23-1.85.92-.46.46-2.08,1.38-3.46,2.31-1.62.69-3,1.85-3.69,2.31l-2.08,2.31c-.92.69-9.46,8.07-11.3,9.92-1.85,1.61-3.69,3.46-4.15,3.92-.46.23-2.77,2.54-4.84,4.84-2.08,2.31-5.3,5.07-6.69,6.46-1.38,1.38-2.77,2.77-2.77,3-.69,1.15-2.54,3.23-6.46,7.15-9.46,9.23-10.61,10.15-13.38,12.23l-2.54,1.84c-.69.69-2.31,1.61-3.92,2.08-2.08.69-2.31.69-4.38.23-4.61-.92-9.69-5.54-10.38-9-.69-3.23-1.38-9,.92-12.46.92-.92,1.85-3.23,2.77-4.84l2.77-5.07c.92-1.15,1.61-2.31,1.85-2.77.92-1.61,3-4.84,4.38-6.92.92-1.15,1.85-2.77,2.54-3.92,1.15-2.31,4.61-7.15,6-8.53.69-.92,1.61-1.84,2.08-2.54.69-1.38,4.38-5.77,6.92-9.23,1.15-1.38,2.54-3.46,3-4.38s1.15-2.31,1.85-2.77c.69-.46.92-1.15.92-1.38s.46-1.15,1.15-1.84c.92-1.38,2.77-5.54,3.23-7.38.46-1.61,2.31-2.54.69-3.69-1.38-.69-1.61-1.85-.92-2.31.23-.23,2.54-.23,4.84,0Z"/>
    </g>
  </g>
</svg>